<svg width="30" height="30" viewBox="0 0 30 30" fill="none" xmlns="http://www.w3.org/2000/svg">
<g clip-path="url(#clip0_401_200)">
<path d="M4.40904 24.1866L4.83954 23.1821L4.22665 22.2772C2.76895 20.1251 2 17.6184 2 15C2 11.5238 3.34949 8.26561 5.80756 5.80759C8.26567 3.34953 11.5238 2 15 2C18.4762 2 21.7344 3.34954 24.1924 5.80756C26.6504 8.26569 28 11.5238 28 15C28 18.4762 26.6504 21.7343 24.1924 24.1924C21.7344 26.6505 18.4762 28 15 28C12.2899 28 9.71296 27.1818 7.51472 25.6292L6.55827 24.9537L5.50107 25.4571L3.44496 26.4362L4.40904 24.1866ZM0.500026 29.5001L0.500008 29.5L0.499976 29.5L0.500026 29.5001Z" stroke="white" stroke-width="4"/>
<path d="M22.9917 20.0766L22.5421 17.6414C22.5049 17.4403 22.349 17.282 22.1484 17.2419L18.613 16.5348C18.4488 16.5021 18.2795 16.5534 18.1613 16.6716L16.7249 18.108C14.3048 17.0236 12.9616 15.6776 11.7798 13.1536L13.2115 11.7218C13.3298 11.6036 13.3811 11.4341 13.3483 11.2701L12.6412 7.73459C12.6011 7.53403 12.4428 7.37811 12.2416 7.34096L9.80643 6.89137C9.73975 6.87906 9.67107 6.88041 9.60486 6.89547C8.96186 7.0416 8.37516 7.36557 7.90822 7.83262C7.09957 8.64127 6.79055 9.82117 7.01455 11.2449C7.3906 13.6356 8.56195 16.9627 10.7229 19.1322L10.7523 19.1615C12.9203 21.321 16.2473 22.4924 18.638 22.8685C18.9392 22.9159 19.2294 22.9394 19.5074 22.9394C20.5442 22.9394 21.4127 22.6124 22.0504 21.9748C22.5174 21.5078 22.8414 20.9211 22.9875 20.2781C23.0026 20.212 23.004 20.1433 22.9917 20.0766Z" fill="white"/>
</g>
<defs>
<clipPath id="clip0_401_200">
<rect width="30" height="30" fill="white"/>
</clipPath>
</defs>
</svg>
